<?xml version="1.0" standalone="no"?>
<!DOCTYPE svg PUBLIC "-//W3C//DTD SVG 20010904//EN"
 "http://www.w3.org/TR/2001/REC-SVG-20010904/DTD/svg10.dtd">
<svg version="1.0" xmlns="http://www.w3.org/2000/svg"
 width="59.723374pt" height="52.000000pt" viewBox="0 0 59.723374 52.000000"
 preserveAspectRatio="xMidYMid meet">
<metadata>
Created by potrace 1.12, written by Peter Selinger 2001-2015
</metadata>
<g transform="translate(-3.000000,57.000000) scale(0.100000,-0.100000)"
fill="#000000" stroke="none">
<path d="M56 558 c-12 -40 -26 -138 -26 -182 0 -68 18 -92 84 -111 48 -14 59
-23 112 -92 90 -118 100 -123 260 -123 133 0 134 0 140 24 10 40 -30 97 -130
183 -123 107 -151 151 -192 301 -2 9 -36 12 -124 12 -88 0 -122 -3 -124 -12z"/>
<path d="M64 232 c14 -46 26 -111 26 -144 0 -35 2 -38 30 -38 l30 0 0 90 c0
97 2 94 -58 104 -28 5 -32 3 -28 -12z"/>
</g>
</svg>
